<svg xmlns="http://www.w3.org/2000/svg" xmlns:xlink="http://www.w3.org/1999/xlink" width="834.569" height="730.472" viewBox="0 0 834.569 730.472"><defs><filter id="a" x="0" y="0" width="834.569" height="442.924" filterUnits="userSpaceOnUse"><feOffset dy="3" input="SourceAlpha"/><feGaussianBlur stdDeviation="3" result="b"/><feFlood flood-opacity="0.161"/><feComposite operator="in" in2="b"/><feComposite in="SourceGraphic"/></filter><filter id="c" x="288.502" y="145.84" width="468.89" height="584.632" filterUnits="userSpaceOnUse"><feOffset dy="3" input="SourceAlpha"/><feGaussianBlur stdDeviation="3" result="d"/><feFlood flood-opacity="0.161"/><feComposite operator="in" in2="d"/><feComposite in="SourceGraphic"/></filter></defs><g transform="translate(-6.523 145)"><g transform="matrix(1, 0, 0, 1, 6.52, -145)" filter="url(#a)"><path d="M15.991-133.531c-1.823,3.038,1.823,12.153,8.507,20.661S36.651-96.463,36.651-94.64c0,1.215,47.4,84.466,105.127,184.123,57.728,100.265,108.165,186.554,111.2,192.023,4.861,9.115,9.115,5.469,26.13-23.7,21.876-38.891,23.091-33.422-18.23-102.7-12.153-20.053-26.737-45.575-32.206-55.905l-10.33-19.445h82.643l20.661,34.029c10.938,18.23,20.661,32.814,21.876,31.6,4.861-4.861,75.958-131.256,75.958-134.9,0-1.823-54.69-3.646-121.534-3.646H176.415L162.439-16.251C154.539-28.4,146.032-44.811,143.6-52.1L139.347-66.08,468.7-67.3l329.964-1.823,16.407-27.345c9.115-15.192,17.015-30.991,17.015-35.245C832.7-137.177,747.623-139,426.167-139,197.683-139,17.814-136.569,15.991-133.531Z" transform="translate(-6.52 145)"/></g><g transform="matrix(1, 0, 0, 1, 6.52, -145)" filter="url(#c)"><path d="M164.481,61.224C108.575,158.451,63,241.094,63,245.347c0,3.646,8.507,20.661,18.838,37.068L100.675,312.8l13.369-21.876c6.684-11.546,24.914-43.752,40.106-70.49L181.5,170.6h41.929c31.6,0,40.714,1.823,38.283,7.9-1.823,4.254-29.168,52.867-61.375,107.557L142.6,385.718l19.445,35.245c10.33,19.445,21.268,32.814,23.091,30.383,2.431-2.431,40.714-67.451,85.074-144.017,44.36-77.174,110.6-192.023,147.056-255.221C453.731-11.7,490.8-74.894,498.7-89.478L513.89-115H265.961ZM385.064-39.041c0,1.215-17.015,32.814-37.675,69.882L309.713,97.684H226.463l19.445-35.245C256.238,43.6,274.469,12,286.014-7.443L306.675-42.08h39.5C367.442-42.08,385.064-40.864,385.064-39.041Z" transform="translate(234.5 266.84)"/></g></g></svg>